# xmcd
#
# Track frame offsets:
#	150
#	28186
#	46594
#	63476
#	84008
#	101717
#	130870
#	146900
#	170977
#	197658
#	217181
#	229782
#
# Disc length: 3338 seconds
#
# Revision: 0
# Processed by: cddbd v1.5.2PL0 Copyright (c) Steve Scherf et al.
# Submitted via: audiograbber 1.83.01
#
DISCID=ae0d080c
DTITLE=Knopfler, Mark - The Ragpicker's dream CD1
DYEAR=2002
DGENRE=Rock
TTITLE0=Why aye man
TTITLE1=Devil baby
TTITLE2=Hill farmer's blues
TTITLE3=A place where we used to live
TTITLE4=Quality shoe
TTITLE5=Fare thee well Northumberland
TTITLE6=Marbletown
TTITLE7=You don't know you're born
TTITLE8=Coyote
TTITLE9=The Ragpicker's dream
TTITLE10=Daddy's gone to knoxville
TTITLE11=Old pigweed
EXTD=
EXTT0=
EXTT1=
EXTT2=
EXTT3=
EXTT4=
EXTT5=
EXTT6=
EXTT7=
EXTT8=
EXTT9=
EXTT10=
EXTT11=
PLAYORDER=
